<svg xmlns="http://www.w3.org/2000/svg" xmlns:xlink="http://www.w3.org/1999/xlink" version="1.1" enable-background="new 0 0 100 100" xml:space="preserve" width="71" height="71" style=""><rect id="backgroundrect" width="100%" height="100%" x="0" y="0" fill="none" stroke="none" class="" style=""/><g class="currentLayer" style=""><title>Layer 1</title><g id="svg_1" class="selected" fill="#b5525c" fill-opacity="1"><path d="M35.16800022125244,0.010468482971191406 c-0.11100000143051147,0.02800000086426735 -0.19599999487400055,0.056000005453825 -0.25200000405311584,0.08400000631809235 l-17.204999923706055,9.937999725341797 h-0.02800000086426735 c-0.056000005453825,0.02800000086426735 -0.1119999960064888,0.08400000631809235 -0.16899999976158142,0.1119999960064888 c-0.027000002562999725,0.02800000086426735 -0.056000005453825,0.056000005453825 -0.056000005453825,0.08400000631809235 c-0.02800000086426735,0.02800000086426735 -0.02800000086426735,0.02800000086426735 -0.056000005453825,0.056000005453825 c-0.05700000375509262,0.08400000631809235 -0.11299999803304672,0.19699999690055847 -0.11299999803304672,0.2809999883174896 c-0.027000002562999725,0.056000005453825 -0.027000002562999725,0.14100000262260437 -0.027000002562999725,0.19699999690055847 v19.45599937438965 l-16.812000274658203,9.71399974822998 h-0.02800000086426735 c-0.05700000375509262,0.027000002562999725 -0.1119999960064888,0.056000005453825 -0.16899999976158142,0.1119999960064888 c-0.02800000086426735,0.027000002562999725 -0.02800000086426735,0.056000005453825 -0.056000005453825,0.08400000631809235 c-0.02800000086426735,0 -0.02800000086426735,0.02800000086426735 -0.05700000375509262,0.02800000086426735 c-0.05700000375509262,0.1119999960064888 -0.08400000631809235,0.19599999487400055 -0.1119999960064888,0.30900001525878906 c-0.02800000086426735,0.056000005453825 -0.02800000086426735,0.1119999960064888 -0.02800000086426735,0.1679999977350235 v19.905000686645508 c0,0.2800000011920929 0.16899999976158142,0.5619999766349792 0.39400002360343933,0.7019999623298645 l17.1200008392334,9.854000091552734 c0.02800000086426735,0.02800000086426735 0.02800000086426735,0.02800000086426735 0.05700000375509262,0.05700000375509262 l0.02800000086426735,0.027000002562999725 c0.02800000086426735,0 0.02800000086426735,0 0.02800000086426735,0 h0.027000002562999725 c0.02800000086426735,0.02800000086426735 0.02800000086426735,0.02800000086426735 0.05700000375509262,0.02800000086426735 c0,0 0,0 0.027000002562999725,0 c0,0.02800000086426735 0.02900000289082527,0.02800000086426735 0.02900000289082527,0.02800000086426735 c0.027000002562999725,0 0.027000002562999725,0.02800000086426735 0.027000002562999725,0.02800000086426735 c0.02800000086426735,0 0.05700000375509262,0 0.05700000375509262,0 h0.027000002562999725 c0,0 0.02900000289082527,0.027000002562999725 0.05700000375509262,0.027000002562999725 c0,0 0,0 0.02800000086426735,0 h0.02800000086426735 c0.027000002562999725,0 0.027000002562999725,0 0.027000002562999725,0 c0.14100000262260437,0 0.3100000023841858,-0.027000002562999725 0.4220000207424164,-0.1119999960064888 c0.02800000086426735,0 0.08400000631809235,-0.027000002562999725 0.11299999803304672,-0.056000005453825 L35.30899906158447,61.465468406677246 l16.698999404907227,9.628999710083008 c0.027000002562999725,0.02800000086426735 0.056000005453825,0.02800000086426735 0.08400000631809235,0.05700000375509262 l0.02800000086426735,0.027000002562999725 c0,0 0,0 0.02800000086426735,0 h0.027000002562999725 c0,0.02800000086426735 0.02800000086426735,0.02800000086426735 0.02800000086426735,0.02800000086426735 c0.02800000086426735,0 0.02800000086426735,0 0.02800000086426735,0 c0.02800000086426735,0.02800000086426735 0.02800000086426735,0.02800000086426735 0.056000005453825,0.02800000086426735 l0.02800000086426735,0.02800000086426735 c0,0 0.02800000086426735,0 0.05700000375509262,0 l0,0 c0.02800000086426735,0 0.056000005453825,0.027000002562999725 0.056000005453825,0.027000002562999725 c0.02800000086426735,0 0.02800000086426735,0 0.02800000086426735,0 c0.02800000086426735,0 0.02800000086426735,0 0.05700000375509262,0 c0,0 0,0 0.02800000086426735,0 c0.14000000059604645,0 0.2800000011920929,-0.027000002562999725 0.42100000381469727,-0.1119999960064888 c0.02800000086426735,0 0.05700000375509262,-0.027000002562999725 0.08500000834465027,-0.056000005453825 l17.176000595092773,-9.881999969482422 c0.22599999606609344,-0.14100000262260437 0.39400002360343933,-0.4220000207424164 0.39400002360343933,-0.7019999623298645 V40.74647045135498 c0,-0.056000005453825 0,-0.08400000631809235 0,-0.1119999960064888 c0,0 0,-0.027000002562999725 0,-0.056000005453825 c0,0 0,0 0,-0.02800000086426735 v-0.02800000086426735 c-0.027000002562999725,-0.1119999960064888 -0.056000005453825,-0.22499999403953552 -0.14100000262260437,-0.3370000123977661 c0,0 0,-0.027000002562999725 -0.027000002562999725,-0.056000005453825 l0,0 c-0.02800000086426735,-0.02800000086426735 -0.02800000086426735,-0.02800000086426735 -0.02800000086426735,-0.02800000086426735 c-0.05700000375509262,-0.08400000631809235 -0.14100000262260437,-0.14100000262260437 -0.19699999690055847,-0.1679999977350235 l-16.867000579833984,-9.71399974822998 V10.847468376159668 c0,-0.02800000086426735 0,-0.056000005453825 0,-0.08400000631809235 c0,-0.02800000086426735 0,-0.056000005453825 0,-0.056000005453825 v-0.02800000086426735 c0,-0.02800000086426735 0,-0.02800000086426735 0,-0.056000005453825 c-0.027000002562999725,-0.1119999960064888 -0.056000005453825,-0.22499999403953552 -0.14100000262260437,-0.30900001525878906 c0,-0.02800000086426735 0,-0.02800000086426735 0,-0.056000005453825 c-0.027000002562999725,0 -0.027000002562999725,-0.02800000086426735 -0.027000002562999725,-0.02800000086426735 c-0.02800000086426735,0 -0.02800000086426735,-0.02800000086426735 -0.02800000086426735,-0.02800000086426735 c-0.05700000375509262,-0.056000005453825 -0.14100000262260437,-0.1119999960064888 -0.19699999690055847,-0.1679999977350235 l-17.26099967956543,-9.937999725341797 C35.533997535705566,0.010468482971191406 35.33699893951416,-0.017531394958496094 35.16800022125244,0.010468482971191406 L35.16800022125244,0.010468482971191406 zM35.30899906158447,1.6944684982299805 l15.657999992370605,9.039999961853027 l-11.75,6.794000148773193 L35.30899906158447,19.802470207214355 l-15.657999992370605,-9.039999961853027 L35.30899906158447,1.6944684982299805 L35.30899906158447,1.6944684982299805 zM18.835999488830566,12.110468864440918 l15.685999870300293,9.067999839782715 v18.052000045776367 l-7.084000110626221,-4.070000171661377 l-8.60200023651123,-4.970000267028809 V12.110468864440918 L18.835999488830566,12.110468864440918 zM51.78299808502197,12.110468864440918 v18.079999923706055 l-15.687000274658203,9.067999839782715 v-18.079999923706055 L51.78299808502197,12.110468864440918 L51.78299808502197,12.110468864440918 zM18.04900074005127,31.56546688079834 l7.8979997634887695,4.577000141143799 l7.760000228881836,4.464000225067139 l-11.751999855041504,6.794000148773193 l-3.9060001373291016,2.2730000019073486 l-3.9079999923706055,-2.2730000019073486 l-11.75100040435791,-6.794000148773193 L18.04900074005127,31.56546688079834 L18.04900074005127,31.56546688079834 zM52.570000648498535,31.56546688079834 l15.657999992370605,9.041000366210938 l-11.75,6.794000148773193 l-3.9079999923706055,2.2730000019073486 l-3.936000108718872,-2.2730000019073486 l-11.75100040435791,-6.794000148773193 l9.755000114440918,-5.614999771118164 L52.570000648498535,31.56546688079834 L52.570000648498535,31.56546688079834 zM1.5749998092651367,42.009467124938965 l15.687999725341797,9.039999961853027 v18.079999923706055 l-15.687999725341797,-9.067999839782715 V42.009467124938965 L1.5749998092651367,42.009467124938965 zM34.522000312805176,42.009467124938965 v18.052000045776367 l-15.685999870300293,9.067999839782715 v-18.079999923706055 L34.522000312805176,42.009467124938965 L34.522000312805176,42.009467124938965 zM36.09599781036377,42.009467124938965 l15.687000274658203,9.039999961853027 v18.079999923706055 l-15.687000274658203,-9.067999839782715 V42.009467124938965 L36.09599781036377,42.009467124938965 zM69.01500034332275,42.009467124938965 v18.052000045776367 l-15.657999992370605,9.067999839782715 v-18.079999923706055 L69.01500034332275,42.009467124938965 L69.01500034332275,42.009467124938965 z" id="svg_2" transform="" fill="#b5525c" fill-opacity="1"/></g></g></svg>